<svg xmlns="http://www.w3.org/2000/svg" width="80" height="80" viewBox="0 0 80 80">
    <g id="그룹_653" transform="translate(-630 -1314)">
        <path id="사각형_1274" fill="none" d="M0 0H80V80H0z" transform="translate(630 1314)"/>
        <g id="그룹_652" transform="translate(752 726)">
            <g id="그룹_651" transform="translate(-112 603)">
                <g id="그룹_650">
                    <g id="그룹_641" transform="translate(23.683 36.844)">
                        <g id="그룹_640">
                            <path id="패스_323" d="M199.505 346.986l-5.263-5.263a1.316 1.316 0 1 0-1.861 1.861l4.332 4.332-4.334 4.334a1.317 1.317 0 0 0 1.863 1.861l5.263-5.263a1.317 1.317 0 0 0 0-1.862z" class="cls-2" transform="translate(-191.994 -341.338)"/>
                        </g>
                    </g>
                    <g id="그룹_643" transform="translate(36.896 24.369)">
                        <g id="그룹_642">
                            <path id="패스_324" d="M313.993 240.3a1.314 1.314 0 1 0-.945 2.453c4.482 1.729 7.053 3.91 7.053 5.982 0 3.279-6.947 7.482-19.821 8.818a1.315 1.315 0 0 0 .134 2.624c.045 0 .092 0 .134-.005 13.474-1.4 22.182-5.884 22.182-11.434 0-3.314-3.021-6.233-8.737-8.438z" class="cls-2" transform="translate(-299.102 -240.209)"/>
                        </g>
                    </g>
                    <g id="그룹_645" transform="translate(0 24.37)">
                        <g id="그룹_644">
                            <path id="패스_325" d="M30.263 257.949c-16.282 0-27.632-4.855-27.632-9.211 0-2.071 2.571-4.253 7.05-5.984a1.314 1.314 0 1 0-.945-2.453C3.021 242.507 0 245.425 0 248.739c0 7.692 15.592 11.842 30.263 11.842a1.316 1.316 0 1 0 0-2.632z" class="cls-2" transform="translate(0 -240.214)"/>
                        </g>
                    </g>
                    <g id="그룹_647" transform="translate(21.053 10.526)">
                        <g id="그룹_646">
                            <path id="패스_326" d="M179.877 127.989a9.211 9.211 0 1 0 9.211 9.211 9.221 9.221 0 0 0-9.211-9.211zm0 15.789a6.579 6.579 0 1 1 6.579-6.579 6.586 6.586 0 0 1-6.579 6.579z" class="cls-2" transform="translate(-170.666 -127.989)"/>
                        </g>
                    </g>
                    <g id="그룹_649" transform="translate(7.895)">
                        <g id="그룹_648">
                            <path id="패스_327" d="M102.158 47.919h-8.4l-1.537-3.079a3.924 3.924 0 0 0-3.532-2.184h-4.642a3.926 3.926 0 0 0-3.532 2.182l-1.539 3.082h-8.4A6.587 6.587 0 0 0 64 54.5v15.788a6.586 6.586 0 0 0 6.579 6.579h31.579a6.586 6.586 0 0 0 6.579-6.579V54.5a6.586 6.586 0 0 0-6.579-6.581zm3.947 22.368a3.952 3.952 0 0 1-3.947 3.947H70.579a3.952 3.952 0 0 1-3.947-3.947V54.5a3.952 3.952 0 0 1 3.947-3.947h9.211a1.318 1.318 0 0 0 1.176-.726l1.905-3.811a1.3 1.3 0 0 1 1.176-.726h4.642a1.3 1.3 0 0 1 1.176.729l1.905 3.808a1.318 1.318 0 0 0 1.176.726h9.211a3.952 3.952 0 0 1 3.947 3.947z" class="cls-2" transform="translate(-64 -42.656)"/>
                        </g>
                    </g>
                </g>
            </g>
        </g>
    </g>
</svg>
