<?xml version="1.0" encoding="utf-8"?>
<!-- Generator: Adobe Illustrator 24.3.0, SVG Export Plug-In . SVG Version: 6.00 Build 0)  -->
<!DOCTYPE svg PUBLIC "-//W3C//DTD SVG 1.1//EN" "http://www.w3.org/Graphics/SVG/1.1/DTD/svg11.dtd" [
	<!ENTITY ns_extend "http://ns.adobe.com/Extensibility/1.0/">
	<!ENTITY ns_ai "http://ns.adobe.com/AdobeIllustrator/10.0/">
	<!ENTITY ns_graphs "http://ns.adobe.com/Graphs/1.0/">
	<!ENTITY ns_vars "http://ns.adobe.com/Variables/1.0/">
	<!ENTITY ns_imrep "http://ns.adobe.com/ImageReplacement/1.0/">
	<!ENTITY ns_sfw "http://ns.adobe.com/SaveForWeb/1.0/">
	<!ENTITY ns_custom "http://ns.adobe.com/GenericCustomNamespace/1.0/">
	<!ENTITY ns_adobe_xpath "http://ns.adobe.com/XPath/1.0/">
]>
<svg version="1.1" id="레이어_1" xmlns:x="&ns_extend;" xmlns:i="&ns_ai;" xmlns:graph="&ns_graphs;"
	 xmlns="http://www.w3.org/2000/svg" xmlns:xlink="http://www.w3.org/1999/xlink" x="0px" y="0px" viewBox="0 0 56 56"
	 style="enable-background:new 0 0 56 56;" xml:space="preserve">
<metadata>
	<sfw  xmlns="&ns_sfw;">
		<slices></slices>
		<sliceSourceBounds  bottomLeftOrigin="true" height="48" width="55.9" x="0.1" y="-52"></sliceSourceBounds>
	</sfw>
</metadata>
<linearGradient id="SVGID_1_" gradientUnits="userSpaceOnUse" x1="0" y1="0" x2="0.7071" y2="0.7071">
	<stop  offset="0" style="stop-color:#E6E7EA"/>
	<stop  offset="0.1747" style="stop-color:#E2E3E6"/>
	<stop  offset="0.3538" style="stop-color:#D6D7DA"/>
	<stop  offset="0.5349" style="stop-color:#C1C4C5"/>
	<stop  offset="0.7174" style="stop-color:#A4A8A8"/>
	<stop  offset="0.8993" style="stop-color:#808584"/>
	<stop  offset="1" style="stop-color:#686E6C"/>
</linearGradient>
<path id="패스_344" class="st0" d="M51.6,23.6V12.7c0-2.4-2-4.4-4.4-4.4H8.8c-2.4,0-4.4,2-4.4,4.4v21.8c0,2.4,2,4.4,4.4,4.4h38.4
	c2.4,0,4.4-2,4.4-4.4c0-1.2,1-2.2,2.2-2.2s2.2,1,2.2,2.2c0,4.8-3.9,8.7-8.7,8.7h-17v4.4h7.6c1.2,0,2.2,1,2.2,2.2
	c0,1.2-1,2.2-2.2,2.2H18.2C17,52,16,51,16,49.8c0-1.2,1-2.2,2.2-2.2h7.6v-4.4h-17c-4.8,0-8.7-3.9-8.7-8.7V12.7C0.1,7.9,4,4,8.8,4
	h38.4c4.8,0,8.7,3.9,8.7,8.7v10.9c0,1.2-1,2.2-2.2,2.2C52.5,25.8,51.6,24.8,51.6,23.6z M42.6,15.9h-13c-1.2,0-2.2,1-2.2,2.2
	c0,1.2,1,2.2,2.2,2.2h13c1.2,0,2.2-1,2.2-2.2S43.8,15.9,42.6,15.9z M24.8,11.6c-0.9-0.8-2.3-0.6-3.1,0.3c0,0,0,0,0,0L17,17.6
	l-1.9-1.9c-0.8-0.9-2.2-0.9-3.1,0c-0.9,0.8-0.9,2.2,0,3.1l0,0l2.3,2.4l0.1,0.1c0.7,0.7,1.6,1.1,2.6,1.1c0.1,0,0.2,0,0.3,0
	c1.1-0.1,2-0.6,2.7-1.4l5.1-6.2C25.9,13.7,25.7,12.4,24.8,11.6L24.8,11.6z M42.6,29.3h-13c-1.2,0-2.2,1-2.2,2.2c0,1.2,1,2.2,2.2,2.2
	h13c1.2,0,2.2-1,2.2-2.2C44.8,30.3,43.8,29.3,42.6,29.3z M24.8,25c-0.9-0.8-2.3-0.6-3.1,0.3c0,0,0,0,0,0L17,31l-1.9-1.9
	c-0.8-0.9-2.2-0.9-3.1,0c-0.9,0.8-0.9,2.2,0,3.1l0,0l2.3,2.4l0.1,0.1c0.7,0.7,1.6,1,2.6,1c0.1,0,0.2,0,0.3,0c1.1-0.1,2-0.6,2.7-1.4
	l5.1-6.2C25.9,27.1,25.7,25.8,24.8,25C24.8,25,24.8,25,24.8,25L24.8,25z"/>
</svg>
