<?xml version="1.0" encoding="utf-8"?>
<!-- Generator: Adobe Illustrator 24.3.0, SVG Export Plug-In . SVG Version: 6.00 Build 0)  -->
<!DOCTYPE svg PUBLIC "-//W3C//DTD SVG 1.1//EN" "http://www.w3.org/Graphics/SVG/1.1/DTD/svg11.dtd" [
	<!ENTITY ns_extend "http://ns.adobe.com/Extensibility/1.0/">
	<!ENTITY ns_ai "http://ns.adobe.com/AdobeIllustrator/10.0/">
	<!ENTITY ns_graphs "http://ns.adobe.com/Graphs/1.0/">
	<!ENTITY ns_vars "http://ns.adobe.com/Variables/1.0/">
	<!ENTITY ns_imrep "http://ns.adobe.com/ImageReplacement/1.0/">
	<!ENTITY ns_sfw "http://ns.adobe.com/SaveForWeb/1.0/">
	<!ENTITY ns_custom "http://ns.adobe.com/GenericCustomNamespace/1.0/">
	<!ENTITY ns_adobe_xpath "http://ns.adobe.com/XPath/1.0/">
]>
<svg version="1.1" id="레이어_1" xmlns:x="&ns_extend;" xmlns:i="&ns_ai;" xmlns:graph="&ns_graphs;"
	 xmlns="http://www.w3.org/2000/svg" xmlns:xlink="http://www.w3.org/1999/xlink" x="0px" y="0px" viewBox="0 0 56 56"
	 style="enable-background:new 0 0 56 56;" xml:space="preserve">
<metadata>
	<sfw  xmlns="&ns_sfw;">
		<slices></slices>
		<sliceSourceBounds  bottomLeftOrigin="true" height="51.4" width="51.4" x="2.3" y="-53.7"></sliceSourceBounds>
	</sfw>
</metadata>
<linearGradient id="SVGID_1_" gradientUnits="userSpaceOnUse" x1="0" y1="0" x2="0.7071" y2="0.7071">
	<stop  offset="0" style="stop-color:#E6E7EA"/>
	<stop  offset="0.1747" style="stop-color:#E2E3E6"/>
	<stop  offset="0.3538" style="stop-color:#D6D7DA"/>
	<stop  offset="0.5349" style="stop-color:#C1C4C5"/>
	<stop  offset="0.7174" style="stop-color:#A4A8A8"/>
	<stop  offset="0.8993" style="stop-color:#808584"/>
	<stop  offset="1" style="stop-color:#686E6C"/>
</linearGradient>
<g>
	<path class="st0" d="M7.5,21.1h24.2c0.6,0,1.1,0.5,1.1,1.1v6.3c0,1.1,0.9,2.1,2.1,2.1s2.1-0.9,2.1-2.1v-6.3c0-2.9-2.3-5.2-5.2-5.2
		h-1.1v-3.7c0-2.9-1.1-5.7-3.2-7.8c-2.1-2.1-4.8-3.2-7.8-3.2c0,0,0,0,0,0c-6.1,0-11,4.9-11,11V17H7.5c-2.9,0-5.2,2.3-5.2,5.2v17.9
		c0,2.9,2.3,5.2,5.2,5.2h18.9l0.5,0v-0.1c0.9-0.2,1.6-1,1.6-2c0-1.1-0.9-2.1-2.1-2.1H7.5c-0.6,0-1.1-0.5-1.1-1.1V22.2
		C6.4,21.6,6.9,21.1,7.5,21.1z M26.4,17H12.7v-3.7c0-1.8,0.7-3.6,2-4.8c1.3-1.3,3-2,4.8-2c0,0,0,0,0,0c3.8,0,6.9,3.1,6.9,6.9V17z"/>
	<path class="st0" d="M51.6,32.8c-0.9,0-1.7,0.6-2,1.4c-1.1-0.9-2.4-1.6-3.8-2c-5.8-1.8-12,1.5-13.7,7.3c-0.3,1.1,0.3,2.3,1.4,2.6
		c0.2,0.1,0.4,0.1,0.6,0.1h0c0,0,0,0,0,0c0.9,0,1.7-0.6,2-1.5c0.5-1.7,1.7-3.2,3.3-4c2.4-1.3,5.1-1,7.2,0.5
		c-0.7,0.3-1.3,1.1-1.3,1.9c0,1.1,0.9,2.1,2.1,2.1h4.2c0.6,0,1.1-0.2,1.5-0.6c0.4-0.4,0.6-0.9,0.6-1.5v-4.2
		C53.7,33.7,52.8,32.8,51.6,32.8z"/>
	<path class="st0" d="M51.9,43.3c-1.1-0.3-2.3,0.3-2.6,1.4c-0.5,1.7-1.7,3.2-3.3,4c-1.6,0.9-3.5,1-5.2,0.5c-0.7-0.2-1.4-0.5-1.9-1
		c0.8-0.3,1.3-1.1,1.3-1.9c0-1.1-0.9-2.1-2.1-2.1h-4.2c-1.1,0-2.1,0.9-2.1,2.1v4.2c0,1.1,0.9,2.1,2.1,2.1h0c0.9,0,1.7-0.6,2-1.4
		c1.9,1.6,4.4,2.5,7,2.5c0,0,0,0,0,0c4.9,0,9.1-3.1,10.5-7.8C53.6,44.8,52.9,43.7,51.9,43.3z"/>
</g>
</svg>
